<?xml version="1.0" standalone="yes"?>
<svg xmlns="http://www.w3.org/2000/svg" width="420" height="162">
<path style="fill:#0e2339; stroke:none;" d="M0 0L0 162L420 162L420 0L0 0z"/>
<path style="fill:#c44614; stroke:none;" d="M133 12C131.99 17.5202 132.221 22.9753 135.089 28C136.543 30.547 139.985 32.9869 140.37 35.9961C141.848 47.5621 123.464 42.0162 119 40C118.564 44.9532 116.455 52.9061 109.999 52.4583C105.14 52.1213 100.163 47.5513 96 45.3094C84.2143 38.9626 71.5578 35.8165 61.0154 46.0432C58.5179 48.466 56.5907 50.9336 55 54C70.7198 46.8983 79.6168 50.0061 91 63C84.037 62.12 75.1834 60.1813 69.0432 64.6528C63.8939 68.4027 62.3217 74.9694 58.7793 79.9853C53.3163 87.7208 43.5341 92.7584 34 92.6566C25.9013 92.5702 18.7818 87.7607 12 84C13.9662 88.1322 16.4693 91.5786 20.0147 94.5324C42.3141 113.111 58.1398 91.9691 81 91.0401C93.491 90.5325 99.9033 99.7917 111 102C99.9406 112.824 89.1389 116.936 74 114C83.2975 127.19 99.692 133.525 115 127.536C119.895 125.621 125.757 119.385 130.675 118.768C134.023 118.348 139.237 125.72 143 127C141.67 96.0147 152.873 41.6113 188 32L188 31C167.817 28.2822 148.966 24.7204 133 12z"/>
<path style="fill:#596977; stroke:none;" d="M197 36L198 37L197 36z"/>
<path style="fill:#c44614; stroke:none;" d="M257 98C249.411 98 229.804 94.4514 223.702 99.0278C218.735 102.753 215.877 118.064 215 124C208.532 124 195.373 126.508 190.434 121.566C186.504 117.634 188.637 110.734 189.662 106C192.265 93.9791 196.764 71.9109 208.015 65.0093C222.655 56.0298 245.65 69.3605 260.722 62.3966C266.538 59.7097 269.211 41.854 270 36C246.942 36 218.405 31.4583 196 36.8997C167.11 43.9161 158.319 82.9076 152.65 108C150.033 119.589 149.471 134.166 157.39 143.985C169.057 158.449 205.407 154.437 222 152.282C226.62 151.682 236.865 152.663 240.297 149.397C243.552 146.299 244.284 139.153 245.667 135C249.636 123.081 255.164 110.435 257 98z"/>
<path style="fill:#596977; stroke:none;" d="M193 37L194 38L193 37M183 42L184 43L183 42M178 46L179 47L178 46M171 55L172 56L171 55M170 57L171 58L170 57M169 59L170 60L169 59M168 61L169 62L168 61M167 63L168 64L167 63M210 63L210 64L213 64L210 63M214 63L214 64L262 64C249.586 58.7907 227.526 63 214 63M203 68L204 69L203 68M371 68L372 69L371 68z"/>
<path style="fill:#adb5bd; stroke:none;" d="M371 97L372 97L372 69L376 69C368.15 66.4277 371 91.8727 371 97z"/>
<path style="fill:#f8f9f9; stroke:none;" d="M372 69L372 97L376 97C376 93.4563 374.217 81.2068 380 81.2068C385.783 81.2068 384 93.4563 384 97L388 97C388 87.3829 389.661 74.9709 376 79L376 69L372 69z"/>
<path style="fill:#596977; stroke:none;" d="M164 70L165 71L164 70M202 70L203 71L202 70M298 70L299 71L298 70z"/>
<path style="fill:#adb5bd; stroke:none;" d="M299 70L299 71L312 74C308.339 69.8511 304.248 70.0035 299 70z"/>
<path style="fill:#596977; stroke:none;" d="M296 71L297 72L296 71z"/>
<path style="fill:#adb5bd; stroke:none;" d="M297 71L298 72L297 71z"/>
<path style="fill:#f8f9f9; stroke:none;" d="M313 85L303 85L303 87L309 87C307.351 108.677 284.114 74.3287 303.001 73.7508C306.541 73.6425 309.405 77.4008 313 78C307.78 63.0152 290.07 73.3808 292.214 87C293.428 94.7145 305.119 101.789 311.397 94.5664C313.565 92.0713 312.998 88.0584 313 85z"/>
<path style="fill:#596977; stroke:none;" d="M163 72L164 73L163 72z"/>
<path style="fill:#adb5bd; stroke:none;" d="M295 72L296 73L295 72M294 73L295 74L294 73M301 73L302 74L301 73z"/>
<path style="fill:#596977; stroke:none;" d="M302.667 73.3333L303.333 73.6667L302.667 73.3333z"/>
<path style="fill:#adb5bd; stroke:none;" d="M304.667 73.3333L305.333 73.6667L304.667 73.3333z"/>
<path style="fill:#596977; stroke:none;" d="M293 74L294 75L293 74z"/>
<path style="fill:#adb5bd; stroke:none;" d="M299 74L300 75L299 74z"/>
<path style="fill:#596977; stroke:none;" d="M300 74L301 75L300 74M305.667 74.3333L306.333 74.6667L305.667 74.3333M312 74L313 75L312 74M162 75L163 76L162 75z"/>
<path style="fill:#adb5bd; stroke:none;" d="M293 75L294 76L293 75z"/>
<path style="fill:#596977; stroke:none;" d="M298 75L299 76L298 75M307 75L308 76L307 75z"/>
<path style="fill:#adb5bd; stroke:none;" d="M312 75L313 76L312 75z"/>
<path style="fill:#596977; stroke:none;" d="M292 76L293 77L292 76z"/>
<path style="fill:#adb5bd; stroke:none;" d="M297 76L298 77L297 76M308 76L309 77L308 76z"/>
<path style="fill:#596977; stroke:none;" d="M161 77L162 78L161 77z"/>
<path style="fill:#adb5bd; stroke:none;" d="M292 77L293 78L292 77z"/>
<path style="fill:#596977; stroke:none;" d="M297 77L298 78L297 77M308 77L309 78L308 77M313 77L310 79L310 80L313 77z"/>
<path style="fill:#adb5bd; stroke:none;" d="M321 78L321 79L332 79L321 78M339 77L339 78L344 79L339 77z"/>
<path style="fill:#596977; stroke:none;" d="M343.667 77.3333L344.333 77.6667L343.667 77.3333z"/>
<path style="fill:#adb5bd; stroke:none;" d="M345 77L345 78L349 81L350 81L350 77L345 77M354 78L354 79L363 78L354 78z"/>
<path style="fill:#596977; stroke:none;" d="M363 77L364 78L363 77M377 77L378 78L377 77z"/>
<path style="fill:#adb5bd; stroke:none;" d="M378 77L378 78L385 78L378 77z"/>
<path style="fill:#596977; stroke:none;" d="M396 77L397 78L396 77z"/>
<path style="fill:#adb5bd; stroke:none;" d="M397 77L397 78L406 79L397 77M309 78L309 79L313 79L309 78z"/>
<path style="fill:#596977; stroke:none;" d="M320 78L321 79L320 78z"/>
<path style="fill:#f8f9f9; stroke:none;" d="M318 83C323.481 82.2195 328.756 78.2055 330 86C325.401 86.0036 311.436 90.2582 321.148 95.9715C324.654 98.0338 330.994 96.7665 335 97C333.838 92.1173 335.347 85.7014 333.258 81.2284C330.225 74.737 320.633 78.4898 318 83z"/>
<path style="fill:#596977; stroke:none;" d="M332 78L333 79L332 78z"/>
<path style="fill:#f8f9f9; stroke:none;" d="M339 78L339 97L343 97C343 90.8202 341.202 82.2729 349 81L349 78L339 78z"/>
<path style="fill:#596977; stroke:none;" d="M353 78L352 80L353 78z"/>
<path style="fill:#f8f9f9; stroke:none;" d="M351 91C353.477 96.0204 365.597 101.043 366.534 91.9992C366.73 90.1102 350.241 77.1892 362.552 81.8495C364.131 82.4473 365.324 82.7634 367 83C364.829 78.6954 353.32 74.4066 352.466 82.0934C351.811 87.9951 359.818 87.0765 361.963 90.8974C364.033 94.5851 357.772 93.5573 356.289 92.8403C354.375 91.9141 353.11 91.3325 351 91z"/>
<path style="fill:#adb5bd; stroke:none;" d="M364 78L367 81L364 78z"/>
<path style="fill:#596977; stroke:none;" d="M365 78L366 79L365 78z"/>
<path style="fill:#adb5bd; stroke:none;" d="M376 78L377 79L376 78M385 78L386 79L385 78z"/>
<path style="fill:#596977; stroke:none;" d="M386 78L387 79L386 78M394 78L393 80L394 78z"/>
<path style="fill:#adb5bd; stroke:none;" d="M395 78L396 79L395 78z"/>
<path style="fill:#f8f9f9; stroke:none;" d="M393 83C398.524 82.1461 401.537 78.8501 405 85C402.406 85.6194 399.576 85.6564 397.044 86.4298C392.694 87.7587 390.65 93.1473 395.149 95.821C398.834 98.0108 404.851 96.8507 409 97C408.661 92.7065 409.395 83.9537 406.972 80.4336C403.486 75.3689 394.587 77.9745 393 83z"/>
<path style="fill:#596977; stroke:none;" d="M406 78L407 79L406 78z"/>
<path style="fill:#adb5bd; stroke:none;" d="M296.333 79.6667L296.667 80.3333L296.333 79.6667M319 79L320 80L319 79z"/>
<path style="fill:#596977; stroke:none;" d="M333 79L334 80L333 79M366 79L367 80L366 79M387 79L388 80L387 79M407 79L408 80L407 79M160 80L161 81L160 80M318 80L319 81L318 80z"/>
<path style="fill:#adb5bd; stroke:none;" d="M324 80L325 81L324 80z"/>
<path style="fill:#596977; stroke:none;" d="M325 80L325 81L330 83L325 80z"/>
<path style="fill:#adb5bd; stroke:none;" d="M328 80L329 81L328 80M333 80L334 81L333 80M357 80L358 81L357 80z"/>
<path style="fill:#596977; stroke:none;" d="M358 80L358 81L361 81L358 80z"/>
<path style="fill:#adb5bd; stroke:none;" d="M378 80L379 81L378 80z"/>
<path style="fill:#596977; stroke:none;" d="M379.667 80.3333L380.333 80.6667L379.667 80.3333z"/>
<path style="fill:#adb5bd; stroke:none;" d="M381 80L382 81L381 80M387 80L388 81L387 80M398 80L399 81L398 80z"/>
<path style="fill:#596977; stroke:none;" d="M399 80L399 81L402 81L399 80z"/>
<path style="fill:#adb5bd; stroke:none;" d="M402 80L403 81L402 80z"/>
<path style="fill:#596977; stroke:none;" d="M296 81L296 86L297 86L296 81z"/>
<path style="fill:#adb5bd; stroke:none;" d="M318 81L319 82L318 81z"/>
<path style="fill:#596977; stroke:none;" d="M323 81L324 82L323 81z"/>
<path style="fill:#adb5bd; stroke:none;" d="M329 81L330 82L329 81M344 81L345 82L344 81z"/>
<path style="fill:#596977; stroke:none;" d="M345 81L345 82L349 82L345 81M351 81L352 82L351 81M356 81L357 82L356 81M361 81L363 83L361 81z"/>
<path style="fill:#adb5bd; stroke:none;" d="M362 81L363 82L362 81z"/>
<path style="fill:#596977; stroke:none;" d="M367 81L368 82L367 81M377.667 81.3333L378.333 81.6667L377.667 81.3333M382 81L383 82L382 81M392 81L393 82L392 81M397 81L398 82L397 81M403 81L404 82L403 81M408 81L409 82L408 81z"/>
<path style="fill:#adb5bd; stroke:none;" d="M322 82L323 83L322 82z"/>
<path style="fill:#596977; stroke:none;" d="M334 82L334 93L335 93L334 82M344 82L345 83L344 82z"/>
<path style="fill:#adb5bd; stroke:none;" d="M351.333 82.6667L351.667 83.3333L351.333 82.6667M367 82L363 83L363 84L368 83L367 82z"/>
<path style="fill:#596977; stroke:none;" d="M376 82L377 83L376 82z"/>
<path style="fill:#adb5bd; stroke:none;" d="M383 82L384 83L383 82M392 82L393 83L392 82M408 82L408 93L409 93L408 82z"/>
<path style="fill:#596977; stroke:none;" d="M318 83L318 84L322 84L318 83z"/>
<path style="fill:#adb5bd; stroke:none;" d="M343 83L344 84L343 83z"/>
<path style="fill:#596977; stroke:none;" d="M367 83L368 84L367 83M383 83L384 84L383 83M392 83L392 84L397 84L392 83z"/>
<path style="fill:#adb5bd; stroke:none;" d="M404.333 83.6667L404.667 84.3333L404.333 83.6667M303 84L303 85L313 85L313 94C316.703 85.1729 310.089 84.0008 303 84z"/>
<path style="fill:#596977; stroke:none;" d="M313 84L314 85L313 84M343 84L343 97L344 97L343 84M351 84L352 85L351 84z"/>
<path style="fill:#adb5bd; stroke:none;" d="M356 84L356 85L362 86L362 85L356 84z"/>
<path style="fill:#596977; stroke:none;" d="M358 84L359 85L358 84M364 84L364 85L367 85L364 84M321 85L322 86L321 85z"/>
<path style="fill:#adb5bd; stroke:none;" d="M322 85L322 86L330 86L322 85M352 85L354 87L352 85M396 85L396 86L404 86L396 85z"/>
<path style="fill:#596977; stroke:none;" d="M158 86L159 87L158 86z"/>
<path style="fill:#adb5bd; stroke:none;" d="M296.333 86.6667L296.667 87.3333L296.333 86.6667M320 86L321 87L320 86z"/>
<path style="fill:#596977; stroke:none;" d="M352 86L353 87L352 86z"/>
<path style="fill:#adb5bd; stroke:none;" d="M362.667 86.3333L363.333 86.6667L362.667 86.3333z"/>
<path style="fill:#596977; stroke:none;" d="M364 86L365 87L364 86z"/>
<path style="fill:#adb5bd; stroke:none;" d="M394.667 86.3333L395.333 86.6667L394.667 86.3333z"/>
<path style="fill:#596977; stroke:none;" d="M303 87L303 88L309 88L303 87z"/>
<path style="fill:#adb5bd; stroke:none;" d="M319 87L320 88L319 87z"/>
<path style="fill:#596977; stroke:none;" d="M354 87L355 88L354 87z"/>
<path style="fill:#adb5bd; stroke:none;" d="M355 87L356 88L355 87M365 87L366 88L365 87M393 87L394 88L393 87z"/>
<path style="fill:#596977; stroke:none;" d="M194 88L195 89L194 88z"/>
<path style="fill:#adb5bd; stroke:none;" d="M318 88L319 89L318 88M323 88L322 90L323 88z"/>
<path style="fill:#596977; stroke:none;" d="M324 88L324 89L330 89L324 88M356.667 88.3333L357.333 88.6667L356.667 88.3333z"/>
<path style="fill:#adb5bd; stroke:none;" d="M358.667 88.3333L359.333 88.6667L358.667 88.3333M366 88L367 89L366 88z"/>
<path style="fill:#596977; stroke:none;" d="M392 88L393 89L392 88M397 89L397 90L404 89L397 89z"/>
<path style="fill:#adb5bd; stroke:none;" d="M404 88L404 91L405 91L404 88z"/>
<path style="fill:#596977; stroke:none;" d="M157 89L158 90L157 89z"/>
<path style="fill:#adb5bd; stroke:none;" d="M292 89L293 90L292 89z"/>
<path style="fill:#596977; stroke:none;" d="M297 89L298 90L297 89M317.333 89.6667L317.667 90.3333L317.333 89.6667z"/>
<path style="fill:#0e2339; stroke:none;" d="M322 90L322 92C325.97 93.4744 328.004 92.7674 330 89L322 90z"/>
<path style="fill:#596977; stroke:none;" d="M359 89L359 90L362 90L359 89M367 89L368 90L367 89z"/>
<path style="fill:#adb5bd; stroke:none;" d="M392 89L393 90L392 89M396.333 89.6667L396.667 90.3333L396.333 89.6667z"/>
<path style="fill:#0e2339; stroke:none;" d="M397 93C400.805 93.306 402.782 92.7492 404 89C400.308 89.1204 398.223 89.3133 397 93z"/>
<path style="fill:#596977; stroke:none;" d="M292 90L293 91L292 90z"/>
<path style="fill:#adb5bd; stroke:none;" d="M297 90L298 91L297 90M351 90L351 91L355 91L351 90z"/>
<path style="fill:#596977; stroke:none;" d="M362 90L363 91L362 90z"/>
<path style="fill:#adb5bd; stroke:none;" d="M367 90L367 93L368 93L367 90M293 91L294 92L293 91z"/>
<path style="fill:#596977; stroke:none;" d="M298 91L299 92L298 91z"/>
<path style="fill:#adb5bd; stroke:none;" d="M317.333 91.6667L317.667 92.3333L317.333 91.6667z"/>
<path style="fill:#596977; stroke:none;" d="M329 91L328 93L329 91M355 91L356 92L355 91z"/>
<path style="fill:#adb5bd; stroke:none;" d="M363 91L364 92L363 91z"/>
<path style="fill:#596977; stroke:none;" d="M396 91L397 92L396 91M156 92L157 93L156 92M293 92L294 93L293 92M299 92L300 93L299 92M308 92L309 93L308 92M322 92L323 93L322 92z"/>
<path style="fill:#adb5bd; stroke:none;" d="M329 92L330 93L329 92M355 92L356 93L355 92M396 92L397 93L396 92M403 92L404 93L403 92M294 93L295 94L294 93M300 93L301 94L300 93z"/>
<path style="fill:#596977; stroke:none;" d="M301 93L302 94L301 93M306 93L307 94L306 93z"/>
<path style="fill:#adb5bd; stroke:none;" d="M307 93L308 94L307 93M323 93L326 95L326 94L323 93z"/>
<path style="fill:#596977; stroke:none;" d="M324 93L325 94L324 93M326 93L327 94L326 93z"/>
<path style="fill:#adb5bd; stroke:none;" d="M327.667 93.3333L328.333 93.6667L327.667 93.3333M334 93L334 96L335 96L334 93M351 93L352 94L351 93M356 93L357 94L356 93z"/>
<path style="fill:#596977; stroke:none;" d="M357 93L358 94L357 93M361 93L362 94L361 93z"/>
<path style="fill:#adb5bd; stroke:none;" d="M362 93L363 94L362 93z"/>
<path style="fill:#596977; stroke:none;" d="M367 93L368 94L367 93z"/>
<path style="fill:#adb5bd; stroke:none;" d="M397 93L398 94L397 93z"/>
<path style="fill:#596977; stroke:none;" d="M398 93L399 94L398 93M400 93L401 94L400 93z"/>
<path style="fill:#adb5bd; stroke:none;" d="M401.667 93.3333L402.333 93.6667L401.667 93.3333z"/>
<path style="fill:#596977; stroke:none;" d="M192 94L193 95L192 94z"/>
<path style="fill:#adb5bd; stroke:none;" d="M295 94L296 95L295 94M302 94L302 95L306 95L302 94M312 94L311 96L312 94M318 94L320 96L318 94M352 94L354 96L352 94M358 94L358 95L361 95L358 94M366 94L365 96L366 94z"/>
<path style="fill:#596977; stroke:none;" d="M392 94L393 95L392 94z"/>
<path style="fill:#adb5bd; stroke:none;" d="M399.667 94.3333L400.333 94.6667L399.667 94.3333z"/>
<path style="fill:#596977; stroke:none;" d="M296 95L297 96L296 95M312 95L313 96L312 95M318 95L319 96L318 95M352 95L353 96L352 95M366 95L367 96L366 95M393 95L394 96L393 95M155 96L156 97L155 96M297 96L298 97L297 96z"/>
<path style="fill:#adb5bd; stroke:none;" d="M298 96L299 97L298 96M309 96L310 97L309 96z"/>
<path style="fill:#596977; stroke:none;" d="M310 96L311 97L310 96M319.667 96.3333L320.333 96.6667L319.667 96.3333z"/>
<path style="fill:#adb5bd; stroke:none;" d="M328 96L329 97L328 96z"/>
<path style="fill:#596977; stroke:none;" d="M329 96L329 97L335 98L335 97L329 96z"/>
<path style="fill:#adb5bd; stroke:none;" d="M330 96L331 97L330 96z"/>
<path style="fill:#596977; stroke:none;" d="M353 96L353 97L364 98L364 97L353 96z"/>
<path style="fill:#adb5bd; stroke:none;" d="M355 96L356 97L355 96z"/>
<path style="fill:#596977; stroke:none;" d="M364.667 96.3333L365.333 96.6667L364.667 96.3333M394 96L394 97L403 98L403 97L394 96z"/>
<path style="fill:#adb5bd; stroke:none;" d="M395 96L396 97L395 96z"/>
<path style="fill:#596977; stroke:none;" d="M403 96L404 97L403 96z"/>
<path style="fill:#adb5bd; stroke:none;" d="M404 96L405 97L404 96z"/>
<path style="fill:#596977; stroke:none;" d="M409 96L410 97L409 96M299 97L299 98L309 98L299 97M321 97L321 98L329 98L321 97M339 97L339 98L343 98L339 97M371 97L371 98L376 98L371 97M384 97L384 98L388 98L384 97M405 97L405 98L409 98L405 97M154 99L155 100L154 99M222 99L223 100L222 99M221 102L222 103L221 102M153 104L154 105L153 104M220 105L221 106L220 105M152 108L153 109L152 108M219 108L220 109L219 108M218 111L219 112L218 111M151 113L152 114L151 113M252 113L253 114L252 113M217 114L218 115L217 114M216 117L217 118L216 117M215 120L216 121L215 120M189 121L190 122L189 121M214 123L215 124L214 123M151 129L152 130L151 129M243 141L244 142L243 141M240 150L241 151L240 150M169.667 151.333L170.333 151.667L169.667 151.333M228 151L229 152L228 151M178 152L179 153L178 152M220 152L221 153L220 152M199 153L199 154L205 154L199 153z"/>
</svg>
